<svg width="46" height="24" viewBox="0 0 46 24" fill="none" xmlns="http://www.w3.org/2000/svg"><path fill-rule="evenodd" clip-rule="evenodd" d="M42.444 20.667a20.579 20.579 0 0 0 2.222-9.334c0-2.614-.485-5.116-1.37-7.418h2.275v16.752h-3.127Zm-36.888 0H.533v-2.904h2.16V6.819H.533V3.915h4.172a20.617 20.617 0 0 0-1.372 7.418c0 3.359.801 6.53 2.223 9.334Z" fill="#000" fill-opacity=".9"/><path fill-rule="evenodd" clip-rule="evenodd" d="M42.872 19.69a20.578 20.578 0 0 0 1.731-9.437 20.616 20.616 0 0 0-1.757-7.337L41.236 3l-3.64 8.05-.048.002-4.51-7.622-3.858.202.877 16.73 3.427-.18L32.9 9.037l.072-.004 1.408 2.57 3.497 5.729 2.949-6.091 1.094-2.509.072-.003.575 10.977.305-.017ZM4.308 4.935a20.618 20.618 0 0 0-.981 7.48 20.58 20.58 0 0 0 2.708 9.204l2.941-.154-.152-2.9-2.157.113L6.094 7.75l2.157-.113-.152-2.9-3.79.199Zm15.347 15.97c1.102-.057 2.1-.286 2.992-.685.892-.4 1.64-.963 2.243-1.692.602-.729 1.052-1.625 1.349-2.69.296-1.065.408-2.293.335-3.683-.073-1.39-.312-2.6-.719-3.627-.406-1.028-.947-1.873-1.622-2.535a6.096 6.096 0 0 0-2.407-1.448c-.93-.304-1.945-.427-3.048-.369l-6.303.33.877 16.73 6.303-.33Zm-2.83-3.096 2.66-.14c1.087-.056 1.926-.405 2.517-1.044.591-.64.852-1.631.782-2.973l-.136-2.589c-.07-1.342-.433-2.3-1.088-2.875-.655-.574-1.526-.833-2.612-.776l-2.66.14.537 10.257Z" fill="#0091FF" fill-opacity=".9"/></svg>