<svg version="1.0" xmlns="http://www.w3.org/2000/svg" width="704" height="704" viewBox="0 0 528 528"><path d="M258.5 9.3c-1.1.7-2.2 1.4-2.5 1.7-.3.3-3 2.1-6 4s-11.8 7.5-19.5 12.5c-16.5 10.7-41.4 26.8-70.3 45.3-11.4 7.4-21.3 13.9-22.1 14.7-1.1 1.1-1.3 20.1-1.3 112.5 0 61.1.2 111.3.5 111.6.3.4 175.2.7 239.9.4 6.4 0 6.8-.1 6.7-2.3-.1-4.5 0-20.3.2-24.2.1-2.2.1-4.7 0-5.5v-6.5c.1-2.8.1-5.6 0-6.3-.2-2.9-.2-4.3-.1-16.5 0-7-.2-13.2-.5-13.7-.3-.6-.3-1 .2-1 .8 0 .7-18.9-.1-22.3-.2-.9-.1-1.7.2-1.7.7 0 .5-19.3-.2-22.3-.2-.9-.1-1.7.2-1.7.7 0 .5-19.3-.2-22.3-.2-.9-.1-1.7.2-1.7.4 0 .6-7.8.4-17.2-.2-9.5-.2-19.1-.1-21.3.1-2.2.1-4.7 0-5.5v-6.5c.1-2.8.1-5.6 0-6.3-.1-.6-.1-1.8-.2-2.5v-6.2c0-2.8.1-6.2.1-7.7 0-2.1-.9-3.4-4.2-5.5-2.4-1.6-4.4-3.1-4.6-3.6-.2-.4-.8-.7-1.2-.7-.5 0-9.7-5.7-20.5-12.8-10.7-7-29.2-19-41-26.7-11.9-7.7-28.3-18.4-36.5-23.8-8.3-5.3-15.1-9.7-15.2-9.6-.2 0-1.2.6-2.3 1.2zM279 51c19.1 12.3 33.1 21.4 65 42.2l14.5 9.4v182.9l-96.5.1c-53.1 0-97-.1-97.6-.4-.8-.2-1.1-24.9-1.1-91.6v-91.2l7.1-4.6c3.9-2.5 13.6-8.8 21.6-14 8-5.2 18.6-12 23.5-15.2 13.5-8.7 19.8-12.8 33-21.5 6.6-4.3 12.5-7.6 13-7.3.6.3 8.4 5.4 17.5 11.2z"/><path d="M250.2 109.5c-10.7 3.3-18.2 9.2-22.9 18.2-10.2 19-3 43.4 15.5 52.4 3.6 1.8 4.2 2.5 4.3 5.2v28.4c0 13.9.3 25.3.7 25.4 4.1.4 34.4.1 34.8-.4.8-.8.8-23.7 0-24.5-.4-.3-2.3-.7-4.4-.8-2-.1-3.9-.2-4.2-.3-.4-.1-.5-28-.1-30.2.1-.3 2-1.4 4.4-2.4 5.8-2.6 14.3-11.4 17.5-18.3 2.3-5 2.7-7 2.7-15.7 0-8.8-.3-10.7-2.7-15.7-3.8-8.1-10.8-15.2-18.6-19-5.3-2.5-8-3.1-14.6-3.3-4.7-.2-9.9.2-12.4 1zm17.7 28.2c1.4 1.1 3.2 3.8 4 6.1 1.3 3.6 1.3 4.4-.3 8.1-4 8.8-16.8 9.5-21.1 1.1-5.8-11.2 7.3-22.7 17.4-15.3zM80.7 440.8c-1.5.3-1.6 3.7-1.6 36.8 0 20 .4 36.5.7 36.5 4.1.7 17.2.3 17.3-.5.1-.6.3-6.3.4-12.6.1-6.3.3-12 .4-12.6.1-.7 4.2-1.2 12.3-1.3 6.7-.1 12.5-.5 12.8-1 .3-.5.4-3.1.3-5.8-.1-2.6-.2-5.8-.2-7.1-.1-2.2-.3-2.3-11.3-2.2-6.2.1-12 .1-12.9.1-1.2-.1-1.5-1.4-1.4-6.6 0-3.5.4-6.7.8-7.1.4-.4 6.3-.6 13.2-.5l12.5.2V441l-8.7-.1c-4.9 0-14.2-.1-20.9-.2-6.6-.1-12.7-.1-13.7.1zm60.1 0c-4.3.2-7.8.7-7.9 1.2 0 .6-.1 16.3-.1 35s.1 34.6.1 35.3c.1.9 5.1 1.2 22.4 1.2h22.2l.1-7c0-3.9-.1-7.5-.3-8.1-.2-.6-4.9-1-13.3-.9-14.5.2-13.7.7-13.5-8.5v-5.5l12.3-.1c6.8-.1 12.5-.4 12.7-.6.8-.7.8-12.5.1-13.7-.5-.7-5-1.1-13.4-1.1h-12.7v-5.5c0-5.2.1-5.5 2.5-5.5 1.4 0 7.7-.2 14-.3l11.5-.2.1-7.8c0-7.1-.1-7.7-2-7.7-1.2 0-7.7-.2-14.6-.3-6.9-.1-16-.1-20.2.1zm82.2.3c-3.5 1.1-9.4 5-11.8 7.9-3.4 4-4.8 12.2-3.1 18.3 1.8 6.9 10.9 14.5 19.1 16.1 7.2 1.4 11.8 5 11.8 9.6 0 6.2-9.2 8-16 3.1-1.9-1.4-3.9-3.1-4.3-3.8-.6-1-2.2-.3-6.8 2.7-3.2 2.3-5.9 4.4-5.9 4.8 0 1.7 6.3 8.2 10.2 10.5 6.7 3.9 13.1 4.9 21 3.5 6.1-1.1 11.4-3.7 14.5-7 6.9-7.4 7.8-20.6 1.8-28.3-3.6-4.8-7-6.9-16-10-9.6-3.3-13-6.3-11.3-10 .6-1.4 1.6-2.5 2.2-2.6.6 0 2-.2 3.1-.4 2.8-.6 7.9 1.2 10 3.4 1.6 1.9 1.8 1.8 7.6-1.6 3.2-1.9 5.9-3.8 5.9-4.2-.1-1.6-7.1-8.1-10.9-10.1-5.1-2.5-15.7-3.5-21.1-1.9zm195.5-.5c-.5.2-2.8.5-5 .7-5.2.5-13.5 2.9-13.5 3.9 0 .4-.6.8-1.4.8-2.7 0-11.6 9.8-14.2 15.7-6.6 14.8-3.5 33.8 7 43.7 8.2 7.6 16 10.5 28.3 10.2 7.6-.2 9.8-.7 15.3-3.3 8.4-3.9 13.5-9 17.3-17.2 4.1-8.8 4.6-20.5 1.3-30.3-4.1-12.2-15.5-21.9-27.6-23.4-2.5-.3-4.9-.7-5.5-.8-.5-.2-1.4-.2-2 0zm5.5 17.7c3.9.8 8.2 4.1 10.6 8.4 3.7 6.3 3.9 16 .3 22.9-3.5 6.8-9.3 9.8-17.7 9.1-5.1-.4-7-1-9.9-3.4-12.6-10.2-9.6-31.7 5-36.6 3.6-1.2 7.3-1.3 11.7-.4zM.5 441.9c-.3.2-.5 16.7-.5 36.5v36.1l20.3-.1c11.1-.1 20.7-.2 21.2-.3.7 0 1-3.4 1-8.3l-.1-8.3H18.5v-55.9l-8.8-.1c-4.8-.1-9 .1-9.2.4zm52.4 2.5c-.4 16.9 0 68.8.5 69.3.9 1 16.7 1 17.2.1.8-1.2.7-70.8-.1-71.6-.3-.3-4.4-.7-9-.7l-8.5-.1-.1 3zm208.9-2.3c-.8.5-1.2 8-.9 14.4.1.7 3.3 1.1 8.3 1h8.3v27.7c0 15.2.4 28 .8 28.5 1.1 1 16.7 1.2 17.3.1.3-.4.5-13.2.5-28.5v-27.8h16.4l.3-7.8c.1-4.2-.1-7.8-.5-7.8-3.1-.5-49.7-.3-50.5.2zm57.7-.3c-.8.8-.5 72.2.2 72.3 3 .5 17.3.4 17.4 0 .1-.3.2-5.9.3-12.3.2-13.3 1.2-15.9 4.2-10.1 1 2.1 2.2 3.9 2.7 4.1.4.2.7.7.7 1.2 0 .4 2.1 4.5 4.8 9.1l4.7 8.4h9.7c5.3 0 9.8-.2 10.1-.5.2-.3-3.6-6.6-8.5-14l-8.8-13.4 2.7-1.4c3.6-1.9 8.3-6.2 8.3-7.8 0-.7.5-1.4 1.1-1.6.6-.2 1.4-3.6 1.7-7.6.9-13.8-5.4-22.8-18.2-25.9-2.6-.6-32.5-1-33.1-.5zm30.7 18.5c2 2.1 2.6 3.4 2.3 5.9-.7 4.9-3.3 6.9-9.8 7.2-6.4.4-6 1.1-5.8-9.3 0-3 .5-5.8 1.1-6.1 2.6-1.6 9.5-.3 12.2 2.3zM455 442.1c0 .4 3.2 6.2 7 13 3.9 6.7 7 12.4 7 12.5 0 .2 1.8 3.3 4 6.9 2.2 3.6 4 7 4 7.5 0 .6.5 1 1.1 1 .5 0 .8.4.4.9-.3.5-.1 1.2.4 1.6.9.5 1.4 13.1 1.1 25l-.1 4h9c4.9 0 9.3-.3 9.6-.7.3-.3.6-6.6.7-13.9v-13.4l4.9-7.8c2.7-4.3 4.9-8 4.9-8.2 0-.6 14.1-25.8 15.2-27.3 1.2-1.4 1.8-1.4-10.4-1.6l-9.7-.2-5 9.1c-2.8 4.9-5.6 10.6-6.2 12.5-1.7 4.6-3.9 8.8-3.9 7.2 0-.6-.1-1.5-.1-2-.3-1.5-13.2-26.2-13.8-26.3-3-.5-20.1-.4-20.1.2z"/></svg>