<svg width="30" height="30" viewBox="0 0 30 30" fill="none" xmlns="http://www.w3.org/2000/svg">
<path fill-rule="evenodd" clip-rule="evenodd" d="M15 29C22.732 29 29 22.732 29 15C29 7.26801 22.732 1 15 1C7.26801 1 1 7.26801 1 15C1 22.732 7.26801 29 15 29ZM30 15C30 23.2843 23.2843 30 15 30C6.71573 30 0 23.2843 0 15C0 6.71573 6.71573 0 15 0C23.2843 0 30 6.71573 30 15Z" fill="white"/>
<path fill-rule="evenodd" clip-rule="evenodd" d="M22.0871 9.14206C21.8872 9.0101 21.6146 8.99461 21.3263 9.09874L6.86383 14.675C5.87258 15.0625 5.89008 15.6112 6.69383 15.8662L10.3963 17.0212L18.9851 11.6137C19.0643 11.5611 19.1424 11.5248 19.2143 11.5026C19.2159 11.5021 19.2175 11.5016 19.2191 11.5011C19.5064 11.4145 19.6924 11.5528 19.4513 11.765L12.5013 18.0437L12.2351 21.86C12.6226 21.86 12.7913 21.6912 12.9913 21.4912L14.8001 19.7487L18.5501 22.5125C19.2338 22.9 19.7226 22.7 19.9051 21.8775L22.3671 10.2783L22.3676 10.2762C22.3676 10.276 22.3667 10.2756 22.3668 10.2754C22.4901 9.69745 22.3526 9.31719 22.0871 9.14206ZM21.3702 10.1536L20.0486 10.6632C20.3155 10.8344 20.5779 11.1495 20.5616 11.626C20.5459 12.0857 20.2617 12.3826 20.118 12.5104L13.4709 18.5155L13.3867 19.7218L14.714 18.4431L18.9493 21.5644L20.6882 13.3722L20.6784 13.3819L21.3702 10.1536ZM16.3578 12.0862L8.11829 15.2631L10.2538 15.9293L16.3578 12.0862Z" fill="white"/>
</svg>
