<svg width="30" height="30" viewBox="0 0 30 30" fill="none" xmlns="http://www.w3.org/2000/svg">
<path fill-rule="evenodd" clip-rule="evenodd" d="M3.96788 23.6205L2.56221 27.8107L6.90426 26.4227L7.30414 26.6876C9.51697 28.1535 12.1551 29 15.0037 29C22.7218 29 29 22.7187 29 15C29 7.28133 22.7218 1 15.0037 1H14.9963C7.27815 1 1 7.27954 1 15C1 18.0632 1.98652 20.8995 3.66402 23.2032L3.96788 23.6205ZM0.98625 29.3644L2.85562 23.7919C1.0575 21.3225 0 18.2812 0 15C0 6.7275 6.72563 0 14.9963 0H15.0037C23.2744 0 30 6.72938 30 15C30 23.2706 23.2744 30 15.0037 30C11.9531 30 9.12375 29.0925 6.75187 27.5213L0.98625 29.3644Z" fill="white"/>
<path fill-rule="evenodd" clip-rule="evenodd" d="M15.5345 22.17C18.9808 23.5987 20.0045 23.4656 20.7883 23.2987C21.9339 23.0512 23.3702 22.2037 23.732 21.1819C24.0939 20.1581 24.0939 19.2862 23.9889 19.1006C23.9041 18.9533 23.7036 18.8568 23.4043 18.7127C23.3264 18.6752 23.2418 18.6344 23.1508 18.5887C22.7102 18.3694 20.567 17.31 20.162 17.1694C19.7645 17.0194 19.3858 17.0719 19.0858 17.4956C19.0287 17.5755 18.9718 17.6556 18.9152 17.7352C18.5532 18.2442 18.2041 18.7352 17.9139 19.0481C17.6495 19.3294 17.2183 19.365 16.8564 19.215C16.817 19.1985 16.7717 19.1803 16.7211 19.1598C16.1481 18.9284 14.8773 18.4151 13.3389 17.0456C12.0414 15.8906 11.1602 14.4525 10.9052 14.0212C10.6548 13.5886 10.8707 13.335 11.0703 13.1005C11.074 13.0962 11.0777 13.0918 11.0814 13.0875C11.2101 12.9283 11.335 12.7957 11.4605 12.6625C11.5507 12.5666 11.6413 12.4704 11.7339 12.3637C11.7477 12.3479 11.761 12.3325 11.774 12.3175C11.9706 12.0916 12.0876 11.957 12.2195 11.6756C12.3695 11.385 12.2627 11.085 12.1558 10.8637C12.0822 10.7088 11.628 9.60667 11.2381 8.66055C11.0712 8.25569 10.9161 7.8794 10.8077 7.61812C10.517 6.92249 10.2958 6.89624 9.85516 6.87749C9.84166 6.87682 9.82802 6.87613 9.81425 6.87543C9.67497 6.86838 9.52157 6.86062 9.35266 6.86062C8.77891 6.86062 8.18078 7.02937 7.81891 7.39874C7.80626 7.41166 7.79308 7.42506 7.7794 7.43898C7.31644 7.90981 6.28516 8.95864 6.28516 11.0494C6.28516 13.1441 7.77148 15.1714 8.04649 15.5465C8.05406 15.5569 8.06072 15.566 8.06641 15.5737C8.08295 15.5955 8.11414 15.6406 8.15953 15.7064C8.72106 16.5196 11.4561 20.4803 15.5345 22.17ZM8.87266 14.9822C8.89778 15.0162 8.93536 15.0701 8.98504 15.1412C9.61139 16.0383 12.161 19.69 15.9173 21.2461C17.6075 21.9469 18.6428 22.2382 19.3165 22.3451C19.9466 22.445 20.2702 22.3866 20.5788 22.3209C21.0211 22.2251 21.548 22.0041 21.9936 21.7025C22.4574 21.3886 22.7096 21.0728 22.7892 20.8486C22.9415 20.4177 23.0144 20.0268 23.0393 19.7403C23.0421 19.7082 23.0442 19.6781 23.0458 19.65C23.0369 19.6457 23.0276 19.6412 23.018 19.6366C23.0035 19.6296 22.9884 19.6223 22.9726 19.6147C22.895 19.5774 22.8022 19.5327 22.7036 19.4832C22.4842 19.3739 21.8435 19.0569 21.2081 18.75C20.8894 18.596 20.5754 18.4463 20.3179 18.3272C20.189 18.2675 20.0777 18.2171 19.9888 18.1783C19.9444 18.1589 19.908 18.1435 19.8795 18.1319C19.8741 18.1297 19.8691 18.1277 19.8646 18.1258C19.8223 18.1851 19.7793 18.2457 19.7357 18.3071C19.3804 18.8073 18.9859 19.3628 18.6471 19.7281L18.6425 19.733C18.0132 20.4025 17.0988 20.398 16.4735 20.1388L16.4715 20.138C16.4328 20.1218 16.3878 20.1036 16.337 20.0831C15.7415 19.8425 14.3413 19.2769 12.674 17.7926C11.2571 16.5313 10.3123 14.9834 10.0444 14.5302L10.0396 14.5222C9.78772 14.0869 9.71914 13.6139 9.87515 13.1559C9.98963 12.8199 10.2141 12.5614 10.3007 12.4616C10.3052 12.4564 10.3093 12.4517 10.313 12.4473C10.4443 12.2858 10.5694 12.1505 10.6786 12.0342C10.6985 12.013 10.7176 11.9927 10.736 11.9731C10.8258 11.8778 10.9005 11.7984 10.9786 11.7084C10.9848 11.7012 10.9908 11.6943 10.9968 11.6874C11.1641 11.4946 11.2203 11.4299 11.2722 11.335C11.2674 11.3242 11.2618 11.3122 11.2553 11.2987L11.2523 11.2925C11.1669 11.1124 10.6788 9.9281 10.2814 8.96399C10.125 8.58453 9.98271 8.23918 9.88451 8.00258C9.86347 7.95226 9.84478 7.91099 9.82838 7.87727C9.82331 7.87705 9.81807 7.87682 9.81264 7.87659L9.80522 7.87627C9.79207 7.87562 9.77906 7.87493 9.76615 7.87428C9.62417 7.86712 9.49511 7.86062 9.35266 7.86062C8.92536 7.86062 8.6361 7.99375 8.53342 8.09837M8.87266 14.9822C8.8675 14.9751 8.86164 14.9671 8.85512 14.9582C8.72742 14.784 8.34713 14.2651 7.98816 13.5574C7.60147 12.795 7.28516 11.9004 7.28516 11.0494C7.28516 9.36661 8.07801 8.56111 8.4915 8.14102C8.50589 8.12641 8.52 8.11207 8.53342 8.09837" fill="white"/>
</svg>
