<svg width="66" height="64" viewBox="0 0 66 64" fill="none" xmlns="http://www.w3.org/2000/svg"><path d="M48 38H17.1V10L32.6 0 48 10v28Zm-27.6-3.3h24.4V11.8L32.6 3.9l-12.2 7.9v22.9Z" fill="#3E9E57"/><path d="M35.4 28.9h-4.5v-8.4h3.3v5.2h1.2v3.2Z" fill="#3A3A3A"/><path d="M32.6 22.1c-2.6 0-4.8-2.1-4.8-4.8 0-2.7 2.1-4.8 4.8-4.8 2.6 0 4.8 2.1 4.8 4.8 0 2.7-2.2 4.8-4.8 4.8Zm0-6.2c-.8 0-1.5.7-1.5 1.5s.7 1.5 1.5 1.5 1.5-.7 1.5-1.5c0-.9-.7-1.5-1.5-1.5ZM5.3 63.3H0v-9.1h2.3v7h3v2.1Zm1.3-9.1h2.3v9.1H6.6v-9.1Zm8.9 1.9h-3.3v1.8h3.2v2h-3.2v3.4H9.9v-9.2h5.6v2Zm6.6 0h-3.4v1.4H22v1.9h-3.2v1.8h3.4v2h-5.6v-9.1h5.6v2h-.1Zm5.1 4.3c.7.9 1.4 1 1.8 1 .5 0 .9-.3.9-.8 0-.7-.6-.9-1.2-1.1-1-.2-2.8-.9-2.8-2.8S27.5 54 29 54c1.1 0 2.2.5 2.9 1.7l-1.5.9c-.4-.5-.8-.7-1.3-.7s-.9.2-.9.7c0 .5.6.7 1.1.8 1.4.4 3 1.1 2.9 3.2-.1 1.9-1.7 2.7-3.3 2.7-1 0-2.4-.4-3.2-1.9l1.5-1Zm11.9-6.2v2H37v7.1h-2.3v-7.1h-2.1v-2h6.5Zm7.8 9.1h-2.6l-1.8-3.2h-.3v3.2h-2.3v-9.1H43c1.3 0 2.4.4 3 1.4.3.5.4 1.1.4 1.7 0 1.1-.6 2.1-1.8 2.5l2.3 3.5ZM43 58.2c.7 0 1.1-.5 1.1-1s-.4-1-1.1-1h-.9v2h.9Zm14 .6c0 2.9-2.1 4.7-4.7 4.7s-4.7-1.8-4.7-4.7c0-2.9 2.1-4.7 4.7-4.7 2.6-.1 4.7 1.8 4.7 4.7Zm-4.7 2.6c1.2 0 2.4-.7 2.4-2.6 0-1.9-1.2-2.6-2.4-2.6s-2.4.9-2.4 2.6c0 1.7 1.2 2.6 2.4 2.6Zm8.9-3.5.6-1.5 1.2-2.2h2.6l-2.2 4-1 1.6v3.5H60v-3.5l-1-1.7-2.2-3.9h2.6l1.2 2.2.6 1.5Z" fill="#3A3A3A"/></svg>