<svg width="31" height="38" viewBox="0 0 31 38" fill="none" xmlns="http://www.w3.org/2000/svg"><path d="M30.9 37.269H0V9.808L15.4 0l15.4 9.808v27.461h.1ZM3.2 34.033h24.4v-22.46L15.4 3.825 3.2 11.573v22.46Z" fill="#fff"/><path d="M18.3 28.344h-4.5v-8.238h3.3v5.1h1.2v3.138Z" fill="#fff"/><path d="M15.4 21.675c-2.6 0-4.8-2.06-4.8-4.708s2.1-4.707 4.8-4.707c2.7 0 4.8 2.06 4.8 4.707 0 2.648-2.2 4.708-4.8 4.708Zm0-6.08c-.8 0-1.5.686-1.5 1.47 0 .785.7 1.471 1.5 1.471s1.5-.686 1.5-1.47c0-.883-.6-1.472-1.5-1.472Z" fill="#fff"/></svg>