<svg width="66" height="64" viewBox="0 0 66 64" fill="none" xmlns="http://www.w3.org/2000/svg">
<path d="M48.0001 38H17.1001V10L32.6001 0L48.0001 10V38ZM20.4001 34.7H44.8001V11.8L32.6001 3.9L20.4001 11.8V34.7Z" fill="#3E9E57"/>
<path d="M35.4001 28.9H30.9001V20.5H34.2001V25.7H35.4001V28.9Z" fill="#3A3A3A"/>
<path d="M32.6 22.1C30 22.1 27.8 20 27.8 17.3C27.8 14.6 29.9 12.5 32.6 12.5C35.2 12.5 37.4001 14.6 37.4001 17.3C37.4001 20 35.2 22.1 32.6 22.1ZM32.6 15.9C31.8 15.9 31.1 16.6 31.1 17.4C31.1 18.2 31.8 18.9 32.6 18.9C33.4 18.9 34.1 18.2 34.1 17.4C34.1 16.5 33.4 15.9 32.6 15.9Z" fill="#3A3A3A"/>
<path d="M5.3 63.3H0V54.2H2.3V61.2H5.3V63.3Z" fill="#3A3A3A"/>
<path d="M6.6001 54.2H8.9001V63.3H6.6001V54.2Z" fill="#3A3A3A"/>
<path d="M15.4999 56.1H12.1999V57.9H15.3999V59.9H12.1999V63.3H9.8999V54.1H15.4999V56.1Z" fill="#3A3A3A"/>
<path d="M22.1001 56.1H18.7001V57.5H22.0001V59.4H18.8001V61.2H22.2001V63.2H16.6001V54.1H22.2001V56.1H22.1001Z" fill="#3A3A3A"/>
<path d="M27.2 60.4C27.9 61.3 28.6 61.4 29 61.4C29.5 61.4 29.9 61.1 29.9 60.6C29.9 59.9 29.3 59.7 28.7 59.5C27.7 59.3 25.9 58.6 25.9 56.7C25.9 54.8 27.5 54 29 54C30.1 54 31.2 54.5 31.9 55.7L30.4 56.6C29.9999 56.1 29.6 55.9 29.1 55.9C28.6 55.9 28.2 56.1 28.2 56.6C28.2 57.1 28.7999 57.3 29.2999 57.4C30.6999 57.8 32.3 58.5 32.2 60.6C32.1 62.5 30.4999 63.3 28.9 63.3C27.9 63.3 26.5 62.9 25.7 61.4L27.2 60.4Z" fill="#3A3A3A"/>
<path d="M39.1001 54.2V56.2H37.0001V63.3H34.7001V56.2H32.6001V54.2H39.1001Z" fill="#3A3A3A"/>
<path d="M46.8999 63.3H44.2999L42.4999 60.1H42.1999V63.3H39.8999V54.2H42.9999C44.2999 54.2 45.3999 54.6 45.9999 55.6C46.2999 56.1 46.3999 56.7 46.3999 57.3C46.3999 58.4 45.7999 59.4 44.5999 59.8L46.8999 63.3ZM42.9999 58.2C43.6999 58.2 44.0999 57.7 44.0999 57.2C44.0999 56.7 43.6999 56.2 42.9999 56.2H42.0999V58.2H42.9999Z" fill="#3A3A3A"/>
<path d="M57.0001 58.8C57.0001 61.7 54.9001 63.5 52.3001 63.5C49.7001 63.5 47.6001 61.7 47.6001 58.8C47.6001 55.9 49.7001 54.1 52.3001 54.1C54.9001 54 57.0001 55.9 57.0001 58.8ZM52.3001 61.4C53.5001 61.4 54.7001 60.7 54.7001 58.8C54.7001 56.9 53.5001 56.2 52.3001 56.2C51.1001 56.2 49.9001 57.1 49.9001 58.8C49.9001 60.5 51.1001 61.4 52.3001 61.4Z" fill="#3A3A3A"/>
<path d="M61.2001 57.9L61.8 56.4L63 54.2H65.6L63.4001 58.2L62.4001 59.8V63.3H60V59.8L59 58.1L56.8 54.2H59.4001L60.6 56.4L61.2001 57.9Z" fill="#3A3A3A"/>
</svg>
