<svg width="66" height="64" viewBox="0 0 66 64" fill="none" xmlns="http://www.w3.org/2000/svg">
<path d="M5.29999 63.3H0V54.2H2.29999V61.2H5.29999V63.3Z" fill="white"/>
<path d="M6.5 54.2H8.79999V63.3H6.5V54.2Z" fill="white"/>
<path d="M15.4999 56.1H12.1999V57.9H15.3999V59.9H12.1999V63.3H9.8999V54.1H15.4999V56.1Z" fill="white"/>
<path d="M21.9999 56.1H18.5999V57.5H21.7999V59.4H18.5999V61.2H21.9999V63.2H16.3999V54.1H21.9999V56.1Z" fill="white"/>
<path d="M27.2 60.4C27.9 61.3 28.5999 61.4 28.9999 61.4C29.4999 61.4 29.8999 61.1 29.8999 60.6C29.8999 59.9 29.3 59.7 28.7 59.5C27.7 59.3 25.8999 58.6 25.8999 56.7C25.8999 54.8 27.4999 54 28.9999 54C30.0999 54 31.1999 54.5 31.8999 55.7L30.3999 56.6C29.9999 56.1 29.5999 55.9 29.0999 55.9C28.5999 55.9 28.2 56.1 28.2 56.6C28.2 57.1 28.7999 57.3 29.2999 57.4C30.6999 57.8 32.3 58.5 32.2 60.6C32.1 62.5 30.4999 63.3 28.8999 63.3C27.8999 63.3 26.5 62.9 25.7 61.4L27.2 60.4Z" fill="white"/>
<path d="M39 54.2V56.2H36.9V63.3H34.6V56.2H32.5V54.2H39Z" fill="white"/>
<path d="M46.8 63.3H44.2001L42.4001 60.1H42.1001V63.3H39.8V54.2H43.0001C44.3001 54.2 45.4001 54.6 46.0001 55.6C46.3001 56.1 46.4001 56.7 46.4001 57.3C46.4001 58.4 45.8001 59.4 44.6001 59.8L46.8 63.3ZM43.0001 58.2C43.7001 58.2 44.1001 57.7 44.1001 57.2C44.1001 56.7 43.7001 56.2 43.0001 56.2H42.1001V58.2H43.0001Z" fill="white"/>
<path d="M56.9 58.8C56.9 61.7 54.8 63.5 52.2 63.5C49.6 63.5 47.5 61.7 47.5 58.8C47.5 55.9 49.6 54.1 52.2 54.1C54.8 54 56.9 55.9 56.9 58.8ZM52.2 61.4C53.4 61.4 54.6 60.7 54.6 58.8C54.6 56.9 53.4 56.2 52.2 56.2C51 56.2 49.8 57.1 49.8 58.8C49.9 60.5 51.1 61.4 52.2 61.4Z" fill="white"/>
<path d="M61.1001 57.9L61.7001 56.4L62.9001 54.2H65.5001L63.3 58.2L62.3 59.8V63.3H60.0001V59.8L59.0001 58.1L56.8 54.2H59.4001L60.6001 56.4L61.1001 57.9Z" fill="white"/>
<path d="M47.0001 38H16.1001V10L31.5001 0L46.9001 10V38H47.0001ZM19.3001 34.7H43.7001V11.8L31.5001 3.9L19.3001 11.8V34.7Z" fill="white"/>
<path d="M34.4001 28.9H29.9001V20.5H33.2002V25.7H34.4001V28.9Z" fill="white"/>
<path d="M31.5002 22.1C28.9002 22.1 26.7002 20 26.7002 17.3C26.7002 14.6 28.8002 12.5 31.5002 12.5C34.2002 12.5 36.3002 14.6 36.3002 17.3C36.3002 20 34.1002 22.1 31.5002 22.1ZM31.5002 15.9C30.7002 15.9 30.0002 16.6 30.0002 17.4C30.0002 18.2 30.7002 18.9 31.5002 18.9C32.3002 18.9 33.0002 18.2 33.0002 17.4C33.0002 16.5 32.4002 15.9 31.5002 15.9Z" fill="white"/>
</svg>
