<svg width="31" height="38" viewBox="0 0 31 38" fill="none" xmlns="http://www.w3.org/2000/svg">
<path d="M30.9 37.269H0V9.80764L15.4 0L30.8 9.80764V37.269H30.9ZM3.19998 34.0325H27.6V11.573L15.4 3.82498L3.19998 11.573V34.0325Z" fill="white"/>
<path d="M18.2998 28.344H13.7998V20.1056H17.0998V25.2056H18.2998V28.344Z" fill="white"/>
<path d="M15.3996 21.675C12.7996 21.675 10.5996 19.6154 10.5996 16.9673C10.5996 14.3192 12.6996 12.2596 15.3996 12.2596C18.0996 12.2596 20.1996 14.3192 20.1996 16.9673C20.1996 19.6154 17.9996 21.675 15.3996 21.675ZM15.3996 15.5942C14.5996 15.5942 13.8996 16.2808 13.8996 17.0654C13.8996 17.85 14.5996 18.5365 15.3996 18.5365C16.1996 18.5365 16.8996 17.85 16.8996 17.0654C16.8996 16.1827 16.2996 15.5942 15.3996 15.5942Z" fill="white"/>
</svg>
