<svg width="66" height="68" viewBox="0 0 66 68" fill="none" xmlns="http://www.w3.org/2000/svg">
<path d="M5.29999 67.5H0V58.4H2.29999V65.4H5.29999V67.5Z" fill="#3A3A3A"/>
<path d="M6.5 58.3H8.79999V67.4H6.5V58.3Z" fill="#3A3A3A"/>
<path d="M15.4999 60.3H12.1999V62.1H15.3999V64.1H12.1999V67.5H9.8999V58.3H15.4999V60.3Z" fill="#3A3A3A"/>
<path d="M22 60.3H18.6V61.7H21.8V63.6H18.6V65.4H22V67.4H16.5V58.4H22.1V60.3H22Z" fill="#3A3A3A"/>
<path d="M27.2 64.6C27.9 65.5 28.5999 65.6 28.9999 65.6C29.4999 65.6 29.8999 65.3 29.8999 64.8C29.8999 64.1 29.3 63.9 28.7 63.7C27.7 63.5 25.8999 62.8 25.8999 60.9C25.8999 59 27.4999 58.2 28.9999 58.2C30.0999 58.2 31.1999 58.7 31.8999 59.9L30.3999 60.8C29.9999 60.3 29.5999 60.1 29.0999 60.1C28.5999 60.1 28.2 60.3 28.2 60.8C28.2 61.3 28.7999 61.5 29.2999 61.6C30.6999 62 32.3 62.7 32.2 64.8C32.1 66.7 30.4999 67.5 28.8999 67.5C27.8999 67.5 26.5 67.1 25.7 65.6L27.2 64.6Z" fill="#3A3A3A"/>
<path d="M39 58.4V60.4H36.9V67.5H34.6V60.4H32.5V58.4H39Z" fill="#3A3A3A"/>
<path d="M46.8 67.5H44.2001L42.4001 64.3H42.1001V67.5H39.8V58.4H43.0001C44.3001 58.4 45.4001 58.8 46.0001 59.8C46.3001 60.3 46.4001 60.9 46.4001 61.5C46.4001 62.6 45.8001 63.6 44.6001 64L46.8 67.5ZM43.0001 62.3C43.7001 62.3 44.1001 61.8 44.1001 61.3C44.1001 60.8 43.7001 60.3 43.0001 60.3H42.1001V62.3H43.0001Z" fill="#3A3A3A"/>
<path d="M57.0001 62.9C57.0001 65.8 54.9001 67.6 52.3001 67.6C49.7001 67.6 47.6001 65.8 47.6001 62.9C47.6001 60 49.7001 58.2 52.3001 58.2C54.8001 58.2 57.0001 60.1 57.0001 62.9ZM52.2001 65.5C53.4001 65.5 54.6001 64.8 54.6001 62.9C54.6001 61 53.4001 60.3 52.2001 60.3C51.0001 60.3 49.8001 61.2 49.8001 62.9C49.9001 64.7 51.1001 65.5 52.2001 65.5Z" fill="#3A3A3A"/>
<path d="M61.1001 62L61.7001 60.5L62.9001 58.3H65.5001L63.3 62.3L62.3 63.9V67.4H60.0001V63.9L59.0001 62.2L56.8 58.3H59.4001L60.6001 60.5L61.1001 62Z" fill="#3A3A3A"/>
<path d="M48.0001 37.9H17.1001V10L32.5001 0L47.9001 10V37.9H48.0001ZM20.3001 34.7H44.7001V11.8L32.5001 3.89999L20.3001 11.8V34.7Z" fill="#3A3A3A"/>
<path d="M35.4001 28.9H30.9001V20.5H34.2002V25.6H35.4001V28.9Z" fill="#3A3A3A"/>
<path d="M32.5002 22.1C29.9002 22.1 27.7002 20 27.7002 17.3C27.7002 14.6 29.8002 12.5 32.5002 12.5C35.2002 12.5 37.3002 14.6 37.3002 17.3C37.3002 20 35.1002 22.1 32.5002 22.1ZM32.5002 15.8C31.7002 15.8 31.0002 16.5 31.0002 17.3C31.0002 18.1 31.7002 18.8 32.5002 18.8C33.3002 18.8 34.0002 18.1 34.0002 17.3C34.0002 16.5 33.4002 15.8 32.5002 15.8Z" fill="#3A3A3A"/>
</svg>
