<svg width="46" height="24" viewBox="0 0 46 24" fill="none" xmlns="http://www.w3.org/2000/svg">
<path fill-rule="evenodd" clip-rule="evenodd" d="M42.4439 20.6667C43.8655 17.8631 44.6665 14.6918 44.6665 11.3333C44.6665 8.71861 44.181 6.2173 43.2951 3.91466H45.5705V20.6667H42.4439ZM5.5558 20.6667H0.533203V17.7627H2.6932V6.81866H0.533203V3.91466H4.70467C3.81878 6.2173 3.3332 8.71861 3.3332 11.3333C3.3332 14.6918 4.13429 17.8631 5.5558 20.6667Z" fill="black" fill-opacity="0.9"/>
<mask id="mask0" mask-type="alpha" maskUnits="userSpaceOnUse" x="0" y="3" width="46" height="18">
<path fill-rule="evenodd" clip-rule="evenodd" d="M42.4439 20.6667C43.8655 17.8631 44.6665 14.6918 44.6665 11.3333C44.6665 8.71861 44.181 6.2173 43.2951 3.91466H45.5705V20.6667H42.4439ZM5.5558 20.6667H0.533203V17.7627H2.6932V6.81866H0.533203V3.91466H4.70467C3.81878 6.2173 3.3332 8.71861 3.3332 11.3333C3.3332 14.6918 4.13429 17.8631 5.5558 20.6667Z" fill="white"/>
</mask>
<g mask="url(#mask0)">
</g>
<path fill-rule="evenodd" clip-rule="evenodd" d="M42.8723 19.6895C44.1452 16.8154 44.7792 13.6065 44.6034 10.2526C44.4666 7.6415 43.8508 5.16903 42.8456 2.91591L41.2353 3.00031L37.5955 11.0498L37.5476 11.0523L33.0385 3.42988L29.1798 3.63211L30.0565 20.3611L33.4838 20.1815L32.8998 9.03682L32.9717 9.03306L34.3801 11.6029L37.8767 17.3317L40.826 11.241L41.9202 8.73232L41.9921 8.72855L42.5674 19.7055L42.8723 19.6895ZM4.30806 4.93558C3.5439 7.28143 3.1899 9.80472 3.32674 12.4159C3.50251 15.7697 4.46847 18.8947 6.03476 21.6201L8.97613 21.4659L8.82414 18.5659L6.6671 18.6789L6.09434 7.74995L8.25138 7.6369L8.09939 4.73688L4.30806 4.93558ZM19.6548 20.9063C20.7573 20.8485 21.7547 20.62 22.647 20.2207C23.5394 19.8215 24.2869 19.2576 24.8896 18.5291C25.4923 17.8005 25.9419 16.9037 26.2386 15.8388C26.5353 14.7738 26.6472 13.5462 26.5743 12.1561C26.5015 10.7661 26.2619 9.55694 25.8555 8.5288C25.4492 7.50065 24.9082 6.65581 24.2326 5.99426C23.5571 5.33271 22.7547 4.85004 21.8256 4.54625C20.8964 4.24246 19.8806 4.11946 18.7781 4.17724L12.4747 4.50758L13.3515 21.2366L19.6548 20.9063ZM16.8249 17.8101L19.4852 17.6707C20.5717 17.6138 21.4107 17.2654 22.002 16.6256C22.5933 15.9857 22.8538 14.9948 22.7835 13.6526L22.6478 11.0641C22.5775 9.72199 22.2148 8.76366 21.5599 8.18915C20.9049 7.61464 20.0341 7.35585 18.9476 7.4128L16.2873 7.55222L16.8249 17.8101Z" fill="#0091FF" fill-opacity="0.9"/>
</svg>
