<?xml version="1.0" standalone="no"?>
<!DOCTYPE svg PUBLIC "-//W3C//DTD SVG 20010904//EN"
 "http://www.w3.org/TR/2001/REC-SVG-20010904/DTD/svg10.dtd">
<svg version="1.0" xmlns="http://www.w3.org/2000/svg"
 width="528.000000pt" height="528.000000pt" viewBox="0 0 528.000000 528.000000"
 preserveAspectRatio="xMidYMid meet">
<metadata>
Created by potrace 1.14, written by Peter Selinger 2001-2017
</metadata>
<g transform="translate(0.000000,528.000000) scale(0.100000,-0.100000)"
fill="#000000" stroke="none">
<path d="M2585 5187 c-11 -7 -22 -14 -25 -17 -3 -3 -30 -21 -60 -40 -30 -19
-118 -75 -195 -125 -165 -107 -414 -268 -703 -453 -114 -74 -213 -139 -221
-147 -11 -11 -13 -201 -13 -1125 0 -611 2 -1113 5 -1116 3 -4 1752 -7 2399 -4
64 0 68 1 67 23 -1 45 0 203 2 242 1 22 1 47 0 55 0 8 0 38 0 65 1 28 1 56 0
63 -2 29 -2 43 -1 165 0 70 -2 132 -5 137 -3 6 -3 10 2 10 8 0 7 189 -1 223
-2 9 -1 17 2 17 7 0 5 193 -2 223 -2 9 -1 17 2 17 7 0 5 193 -2 223 -2 9 -1
17 2 17 4 0 6 78 4 172 -2 95 -2 191 -1 213 1 22 1 47 0 55 0 8 0 38 0 65 1
28 1 56 0 63 -1 6 -1 18 -2 25 0 6 0 35 0 62 0 28 1 62 1 77 0 21 -9 34 -42
55 -24 16 -44 31 -46 36 -2 4 -8 7 -12 7 -5 0 -97 57 -205 128 -107 70 -292
190 -410 267 -119 77 -283 184 -365 238 -83 53 -151 97 -152 96 -2 0 -12 -6
-23 -12z m205 -417 c191 -123 331 -214 650 -422 l145 -94 0 -914 0 -915 -965
-1 c-531 0 -970 1 -976 4 -8 2 -11 249 -11 916 l0 912 71 46 c39 25 136 88
216 140 80 52 186 120 235 152 135 87 198 128 330 215 66 43 125 76 130 73 6
-3 84 -54 175 -112z"/>
<path d="M2502 4185 c-107 -33 -182 -92 -229 -182 -102 -190 -30 -434 155
-524 36 -18 42 -25 43 -52 0 -18 0 -146 0 -284 0 -139 3 -253 7 -254 41 -4
344 -1 348 4 8 8 8 237 0 245 -4 3 -23 7 -44 8 -20 1 -39 2 -42 3 -4 1 -5 280
-1 302 1 3 20 14 44 24 58 26 143 114 175 183 23 50 27 70 27 157 0 88 -3 107
-27 157 -38 81 -108 152 -186 190 -53 25 -80 31 -146 33 -47 2 -99 -2 -124
-10z m177 -282 c14 -11 32 -38 40 -61 13 -36 13 -44 -3 -81 -40 -88 -168 -95
-211 -11 -58 112 73 227 174 153z"/>
<path d="M807 872 c-15 -3 -16 -37 -16 -368 0 -200 4 -365 7 -365 41 -7 172
-3 173 5 1 6 3 63 4 126 1 63 3 120 4 126 1 7 42 12 123 13 67 1 125 5 128 10
3 5 4 31 3 58 -1 26 -2 58 -2 71 -1 22 -3 23 -113 22 -62 -1 -120 -1 -129 -1
-12 1 -15 14 -14 66 0 35 4 67 8 71 4 4 63 6 132 5 l125 -2 0 81 0 80 -87 1
c-49 0 -142 1 -209 2 -66 1 -127 1 -137 -1z"/>
<path d="M1408 872 c-43 -2 -78 -7 -79 -12 0 -6 -1 -163 -1 -350 0 -187 1
-346 1 -353 1 -9 51 -12 224 -12 l222 0 1 70 c0 39 -1 75 -3 81 -2 6 -49 10
-133 9 -145 -2 -137 -7 -135 85 l0 55 123 1 c68 1 125 4 127 6 8 7 8 125 1
137 -5 7 -50 11 -134 11 l-127 0 0 55 c0 52 1 55 25 55 14 0 77 2 140 3 l115
2 1 78 c0 71 -1 77 -20 77 -12 0 -77 2 -146 3 -69 1 -160 1 -202 -1z"/>
<path d="M2230 869 c-35 -11 -94 -50 -118 -79 -34 -40 -48 -122 -31 -183 18
-69 109 -145 191 -161 72 -14 118 -50 118 -96 0 -62 -92 -80 -160 -31 -19 14
-39 31 -43 38 -6 10 -22 3 -68 -27 -32 -23 -59 -44 -59 -48 0 -17 63 -82 102
-105 67 -39 131 -49 210 -35 61 11 114 37 145 70 69 74 78 206 18 283 -36 48
-70 69 -160 100 -96 33 -130 63 -113 100 6 14 16 25 22 26 6 0 20 2 31 4 28 6
79 -12 100 -34 16 -19 18 -18 76 16 32 19 59 38 59 42 -1 16 -71 81 -109 101
-51 25 -157 35 -211 19z"/>
<path d="M4185 874 c-5 -2 -28 -5 -50 -7 -52 -5 -135 -29 -135 -39 0 -4 -6 -8
-14 -8 -27 0 -116 -98 -142 -157 -66 -148 -35 -338 70 -437 82 -76 160 -105
283 -102 76 2 98 7 153 33 84 39 135 90 173 172 41 88 46 205 13 303 -41 122
-155 219 -276 234 -25 3 -49 7 -55 8 -5 2 -14 2 -20 0z m55 -177 c39 -8 82
-41 106 -84 37 -63 39 -160 3 -229 -35 -68 -93 -98 -177 -91 -51 4 -70 10 -99
34 -126 102 -96 317 50 366 36 12 73 13 117 4z"/>
<path d="M5 861 c-3 -2 -5 -167 -5 -365 l0 -361 203 1 c111 1 207 2 212 3 7 0
10 34 10 83 l-1 83 -120 0 -119 0 0 280 0 279 -88 1 c-48 1 -90 -1 -92 -4z"/>
<path d="M529 836 c-4 -169 0 -688 5 -693 9 -10 167 -10 172 -1 8 12 7 708 -1
716 -3 3 -44 7 -90 7 l-85 1 -1 -30z"/>
<path d="M2618 859 c-8 -5 -12 -80 -9 -144 1 -7 33 -11 83 -10 l83 0 0 -277
c0 -152 4 -280 8 -285 11 -10 167 -12 173 -1 3 4 5 132 5 285 l0 278 82 0 82
0 3 78 c1 42 -1 78 -5 78 -31 5 -497 3 -505 -2z"/>
<path d="M3195 862 c-8 -8 -5 -722 2 -723 30 -5 173 -4 174 0 1 3 2 59 3 123
2 133 12 159 42 101 10 -21 22 -39 27 -41 4 -2 7 -7 7 -12 0 -4 21 -45 48 -91
l47 -84 97 0 c53 0 98 2 101 5 2 3 -36 66 -85 140 l-88 134 27 14 c36 19 83
62 83 78 0 7 5 14 11 16 6 2 14 36 17 76 9 138 -54 228 -182 259 -26 6 -325
10 -331 5z m307 -185 c20 -21 26 -34 23 -59 -7 -49 -33 -69 -98 -72 -64 -4
-60 -11 -58 93 0 30 5 58 11 61 26 16 95 3 122 -23z"/>
<path d="M4550 859 c0 -4 32 -62 70 -130 39 -67 70 -124 70 -125 0 -2 18 -33
40 -69 22 -36 40 -70 40 -75 0 -6 5 -10 11 -10 5 0 8 -4 4 -9 -3 -5 -1 -12 4
-16 9 -5 14 -131 11 -250 l-1 -40 90 0 c49 0 93 3 96 7 3 3 6 66 7 139 l0 134
49 78 c27 43 49 80 49 82 0 6 141 258 152 273 12 14 18 14 -104 16 l-97 2 -50
-91 c-28 -49 -56 -106 -62 -125 -17 -46 -39 -88 -39 -72 0 6 -1 15 -1 20 -3
15 -132 262 -138 263 -30 5 -201 4 -201 -2z"/>
</g>
</svg>
