<svg width="30" height="30" viewBox="0 0 30 30" fill="none" xmlns="http://www.w3.org/2000/svg"><path d="M15.004 0h-.008C6.726 0 0 6.728 0 15a14.89 14.89 0 0 0 2.856 8.792l-1.87 5.572 5.766-1.843A14.87 14.87 0 0 0 15.004 30C23.274 30 30 23.27 30 15S23.274 0 15.004 0Z" fill="#fff"/><path d="M23.732 21.182c-.362 1.022-1.798 1.87-2.944 2.117-.784.167-1.807.3-5.254-1.129-4.408-1.826-7.246-6.306-7.468-6.596-.211-.29-1.78-2.372-1.78-4.525 0-2.152 1.092-3.2 1.533-3.65.362-.37.96-.538 1.534-.538.185 0 .352.009.502.016.44.02.662.045.953.741.361.872 1.243 3.024 1.348 3.246.107.221.213.521.063.812-.14.3-.264.433-.485.688-.221.255-.431.45-.653.723-.202.239-.43.494-.176.934.255.431 1.136 1.87 2.434 3.025 1.674 1.49 3.032 1.966 3.517 2.169.362.15.793.114 1.058-.167.335-.362.75-.962 1.172-1.552.3-.424.679-.477 1.076-.327.405.141 2.548 1.2 2.989 1.42.44.221.731.326.838.512.105.185.105 1.057-.257 2.08Z" fill="#3A3A3A"/></svg>