<svg width="20" height="19" viewBox="0 0 20 19" fill="none" xmlns="http://www.w3.org/2000/svg"><path d="m18.563 6.297-5.133-.738L11.11.883c-.387-.809-1.583-.844-2.005 0L6.82 5.559l-5.168.738c-.914.14-1.265 1.266-.597 1.933l3.691 3.622-.879 5.097c-.14.914.844 1.617 1.653 1.195l4.605-2.425 4.57 2.426c.809.421 1.793-.282 1.653-1.196l-.88-5.097L19.16 8.23c.668-.668.317-1.793-.598-1.933Zm-4.922 4.957.843 4.851-4.359-2.285-4.395 2.285.844-4.851-3.55-3.445 4.886-.704 2.215-4.43 2.18 4.43 4.886.704-3.55 3.445Z" fill="#F2C94C"/></svg>