<svg width="30" height="30" viewBox="0 0 30 30" fill="none" xmlns="http://www.w3.org/2000/svg"><path fill-rule="evenodd" clip-rule="evenodd" d="M15 29c7.732 0 14-6.268 14-14S22.732 1 15 1 1 7.268 1 15s6.268 14 14 14Zm15-14c0 8.284-6.716 15-15 15-8.284 0-15-6.716-15-15C0 6.716 6.716 0 15 0c8.284 0 15 6.716 15 15Z" fill="#fff"/><path fill-rule="evenodd" clip-rule="evenodd" d="M22.087 9.142c-.2-.132-.472-.147-.76-.043L6.863 14.675c-.991.387-.974.936-.17 1.191l3.702 1.155 8.59-5.407a.896.896 0 0 1 .228-.111l.005-.002c.287-.086.473.052.232.264l-6.95 6.279-.266 3.816c.388 0 .556-.169.756-.369l1.81-1.742 3.75 2.764c.683.387 1.172.187 1.354-.636l2.462-11.599v-.002c.123-.579-.014-.959-.28-1.134Zm-.717 1.012-1.321.51c.267.17.529.486.513.962-.016.46-.3.757-.444.884l-6.647 6.005-.084 1.207 1.327-1.279 4.235 3.121 1.74-8.192-.01.01.691-3.228Zm-5.012 1.932-8.24 3.177 2.136.666 6.104-3.843Z" fill="#fff"/></svg>