<svg width="14" height="16" viewBox="0 0 14 16" fill="none" xmlns="http://www.w3.org/2000/svg"><path d="M9.781 9C8.875 9 8.47 9.5 7 9.5 5.5 9.5 5.094 9 4.187 9 1.876 9 0 10.906 0 13.219V14.5c0 .844.656 1.5 1.5 1.5h11a1.5 1.5 0 0 0 1.5-1.5v-1.281C14 10.906 12.094 9 9.781 9ZM13 14.5c0 .281-.25.5-.5.5h-11a.494.494 0 0 1-.5-.5v-1.281C1 11.438 2.406 10 4.188 10c.625 0 1.218.5 2.812.5 1.563 0 2.188-.5 2.781-.5A3.214 3.214 0 0 1 13 13.219V14.5ZM7 8c2.188 0 4-1.781 4-4 0-2.188-1.813-4-4-4-2.219 0-4 1.813-4 4 0 2.219 1.781 4 4 4Zm0-7c1.625 0 3 1.375 3 3 0 1.656-1.375 3-3 3a3 3 0 0 1-3-3c0-1.625 1.344-3 3-3Z" fill="#3A3A3A"/></svg>