<svg width="30" height="30" viewBox="0 0 30 30" fill="none" xmlns="http://www.w3.org/2000/svg"><path fill-rule="evenodd" clip-rule="evenodd" d="m3.968 23.62-1.406 4.19 4.342-1.387.4.265a13.87 13.87 0 0 0 7.7 2.312C22.722 29 29 22.719 29 15S22.722 1 15.004 1h-.008C7.278 1 1 7.28 1 15c0 3.063.987 5.9 2.664 8.203l.304.418ZM.986 29.364l1.87-5.572A14.889 14.889 0 0 1 0 15C0 6.727 6.726 0 14.996 0h.008C23.274 0 30 6.73 30 15s-6.726 15-14.996 15c-3.05 0-5.88-.907-8.252-2.479L.986 29.364Z" fill="#fff"/><path fill-rule="evenodd" clip-rule="evenodd" d="M15.534 22.17c3.447 1.429 4.47 1.296 5.254 1.129 1.146-.248 2.582-1.095 2.944-2.117.362-1.024.362-1.896.257-2.081-.085-.148-.285-.244-.585-.388a16.463 16.463 0 0 1-.253-.124c-.44-.22-2.584-1.279-2.989-1.42-.397-.15-.776-.097-1.076.327l-.17.24c-.363.508-.712 1-1.002 1.312-.265.281-.696.317-1.058.167a4.034 4.034 0 0 0-.135-.055c-.573-.232-1.844-.745-3.382-2.114-1.298-1.155-2.179-2.593-2.434-3.025-.25-.432-.034-.686.165-.92l.011-.014c.13-.159.254-.291.38-.425.09-.095.18-.192.273-.298l.04-.046c.197-.226.314-.361.446-.642.15-.291.043-.591-.064-.812-.074-.155-.528-1.257-.918-2.203l-.43-1.043c-.291-.696-.512-.722-.953-.74l-.04-.003a8.872 8.872 0 0 0-.462-.014c-.574 0-1.172.168-1.534.538l-.04.04c-.463.47-1.494 1.52-1.494 3.61 0 2.095 1.486 4.122 1.761 4.498l.02.027c.017.021.048.067.094.132.561.814 3.296 4.774 7.374 6.464Zm-6.661-7.188.112.16c.626.896 3.176 4.548 6.932 6.104 1.69.7 2.726.992 3.4 1.1.63.099.953.04 1.262-.025a4.277 4.277 0 0 0 1.415-.619c.463-.313.716-.63.795-.853a4.612 4.612 0 0 0 .257-1.199l-.028-.013-.045-.022-.27-.132c-.219-.11-.86-.426-1.495-.733a61.267 61.267 0 0 0-.89-.423 16.887 16.887 0 0 0-.439-.195l-.014-.006-.13.181c-.355.5-.75 1.056-1.088 1.421l-.005.005c-.629.67-1.543.665-2.168.406l-.003-.001a11.84 11.84 0 0 0-.134-.055c-.595-.24-1.996-.806-3.663-2.29-1.417-1.262-2.362-2.81-2.63-3.263l-.004-.008c-.252-.435-.32-.908-.165-1.366.115-.336.34-.595.426-.694l.012-.015a7.51 7.51 0 0 1 .366-.413l.057-.06c.09-.096.164-.176.243-.266l.018-.02c.167-.193.223-.258.275-.353a1.326 1.326 0 0 0-.017-.036l-.003-.006c-.085-.18-.573-1.365-.97-2.329l-.397-.961a2.442 2.442 0 0 0-.057-.126h-.023l-.039-.003a7.957 7.957 0 0 0-.413-.013c-.428 0-.717.133-.82.237m.34 6.884a10.035 10.035 0 0 1-.885-1.425c-.387-.762-.703-1.657-.703-2.508 0-1.682.793-2.488 1.207-2.908l.041-.043" fill="#fff"/></svg>